<svg xmlns="http://www.w3.org/2000/svg" width="226" height="42" viewBox="0 0 226 42" fill="none">
<mask id="path-1-inside-1_875_3271" fill="white">
<path d="M210 0C218.837 3.60784e-06 226 7.16345 226 16C226 24.8366 218.837 32 210 32H119.388L113.77 41.1719C113.269 41.9879 112.075 41.9622 111.61 41.125L106.554 32H16C7.16345 32 0 24.8366 0 16C0 7.16344 7.16344 0 16 0H210Z"/>
</mask>
<path d="M210 0C218.837 3.60784e-06 226 7.16345 226 16C226 24.8366 218.837 32 210 32H119.388L113.77 41.1719C113.269 41.9879 112.075 41.9622 111.61 41.125L106.554 32H16C7.16345 32 0 24.8366 0 16C0 7.16344 7.16344 0 16 0H210Z" fill="white"/>
<path d="M210 0V-1.5V-1.5V0ZM119.388 32V30.5H118.547L118.109 31.2165L119.388 32ZM113.77 41.1719L115.048 41.9559L115.049 41.9554L113.77 41.1719ZM111.61 41.125L110.298 41.8521L110.298 41.8523L111.61 41.125ZM106.554 32L107.866 31.2729L107.437 30.5H106.554V32ZM16 32L16 33.5H16V32ZM210 0V1.5C218.008 1.5 224.5 7.99187 224.5 16H226H227.5C227.5 6.33502 219.665 -1.5 210 -1.5V0ZM226 16H224.5C224.5 24.0081 218.008 30.5 210 30.5V32V33.5C219.665 33.5 227.5 25.665 227.5 16H226ZM210 32V30.5H119.388V32V33.5H210V32ZM119.388 32L118.109 31.2165L112.49 40.3884L113.77 41.1719L115.049 41.9554L120.667 32.7835L119.388 32ZM113.77 41.1719L112.491 40.3879C112.59 40.2253 112.829 40.2295 112.922 40.3977L111.61 41.125L110.298 41.8523C111.32 43.6949 113.948 43.7505 115.048 41.9559L113.77 41.1719ZM111.61 41.125L112.922 40.3979L107.866 31.2729L106.554 32L105.242 32.7271L110.298 41.8521L111.61 41.125ZM106.554 32V30.5H16V32V33.5H106.554V32ZM16 32V30.5C7.99187 30.5 1.5 24.0081 1.5 16H0H-1.5C-1.5 25.665 6.33502 33.5 16 33.5L16 32ZM0 16H1.5C1.5 7.99187 7.99187 1.5 16 1.5V0V-1.5C6.33502 -1.5 -1.5 6.33502 -1.5 16H0ZM16 0V1.5H210V0V-1.5H16V0Z" fill="url(#paint0_linear_875_3271)" mask="url(#path-1-inside-1_875_3271)"/>
<defs>
<linearGradient id="paint0_linear_875_3271" x1="61.7969" y1="-5.07606" x2="169.719" y2="59.2765" gradientUnits="userSpaceOnUse">
<stop stop-color="#FF4D61"/>
<stop offset="1" stop-color="#F57DB2"/>
</linearGradient>
</defs>
</svg>