<svg width="96" height="16" viewBox="0 0 96 16" fill="none" xmlns="http://www.w3.org/2000/svg">
<path d="M32.5756 12.7241V7.44828C32.5756 6.83908 32.437 6.38506 32.16 6.08621C31.895 5.77586 31.5517 5.62069 31.13 5.62069C30.7084 5.62069 30.3591 5.77586 30.082 6.08621C29.817 6.38506 29.6845 6.83908 29.6845 7.44828H28.9075C28.9075 6.57471 29.0401 5.83333 29.3051 5.22414C29.5821 4.61494 29.9676 4.14943 30.4615 3.82759C30.9554 3.50575 31.5396 3.34483 32.2142 3.34483C33.1056 3.34483 33.8344 3.66092 34.4005 4.2931C34.9788 4.92529 35.2679 5.8046 35.2679 6.93103V12.7241H32.5756ZM21.4089 12.7241V3.58621H24.1012V12.7241H21.4089ZM26.9922 12.7241V7.44828C26.9922 6.83908 26.8597 6.38506 26.5947 6.08621C26.3297 5.77586 25.9804 5.62069 25.5467 5.62069C25.1251 5.62069 24.7758 5.77586 24.4987 6.08621C24.2337 6.38506 24.1012 6.83908 24.1012 7.44828H23.6314C23.6314 6.57471 23.7518 5.83333 23.9928 5.22414C24.2457 4.61494 24.6011 4.14943 25.0588 3.82759C25.5286 3.50575 26.0767 3.34483 26.7031 3.34483C27.5825 3.34483 28.2992 3.66092 28.8533 4.2931C29.4075 4.92529 29.6845 5.8046 29.6845 6.93103V12.7241H26.9922Z" fill="#1A1A1A"/>
<path d="M42.3879 12.7241C42.3157 12.4253 42.2554 12.1207 42.2072 11.8103C42.1711 11.5 42.153 11.1954 42.153 10.8966V7.03448C42.153 6.43678 42.0085 6.01724 41.7194 5.77586C41.4303 5.53448 41.087 5.41379 40.6894 5.41379C40.304 5.41379 39.9667 5.51724 39.6776 5.72414C39.4005 5.93103 39.2078 6.27011 39.0994 6.74138L36.5155 6.2069C36.7684 5.25287 37.2744 4.54023 38.0333 4.06897C38.7922 3.58621 39.7318 3.34483 40.8521 3.34483C42.0808 3.34483 43.0505 3.65517 43.7612 4.27586C44.4839 4.88506 44.8453 5.73563 44.8453 6.82759V10.6897C44.8453 11.3678 44.9357 12.046 45.1164 12.7241H42.3879ZM39.2439 12.9655C38.3043 12.9655 37.5876 12.7299 37.0937 12.2586C36.6118 11.7874 36.3709 11.1667 36.3709 10.3966C36.3709 9.71839 36.6058 9.12069 37.0756 8.60345C37.5575 8.07471 38.2983 7.73563 39.2981 7.58621L42.93 7.01724V8.63793L40.2738 9.17241C39.8161 9.26437 39.5029 9.4023 39.3343 9.58621C39.1656 9.77011 39.0813 9.96552 39.0813 10.1724C39.0813 10.3908 39.1536 10.5747 39.2981 10.7241C39.4547 10.8621 39.6836 10.931 39.9847 10.931C40.3341 10.931 40.6714 10.8563 40.9966 10.7069C41.3339 10.5575 41.611 10.3333 41.8278 10.0345C42.0446 9.72414 42.153 9.35057 42.153 8.91379H42.7674C42.7674 9.74138 42.6108 10.4598 42.2976 11.069C41.9964 11.6782 41.5808 12.1494 41.0508 12.4828C40.5208 12.8046 39.9185 12.9655 39.2439 12.9655Z" fill="#1A1A1A"/>
<path d="M50.1722 12.9655C49.1242 12.9655 48.293 12.6782 47.6786 12.1034C47.0763 11.5287 46.7752 10.6667 46.7752 9.51724V1.68965L49.4675 1.18966V9.22414C49.4675 9.68391 49.594 10.0345 49.8469 10.2759C50.0999 10.5057 50.4552 10.6207 50.913 10.6207C51.1298 10.6207 51.3286 10.6034 51.5093 10.569C51.702 10.523 51.8948 10.477 52.0875 10.431V12.7241C51.8104 12.8046 51.5153 12.8621 51.2021 12.8966C50.901 12.9425 50.5576 12.9655 50.1722 12.9655ZM45.5826 5.7069V3.58621H51.9971V5.7069H45.5826Z" fill="#1A1A1A"/>
<path d="M57.1439 12.9655C56.2284 12.9655 55.4213 12.7644 54.7226 12.3621C54.0239 11.9598 53.4758 11.3966 53.0783 10.6724C52.6808 9.94828 52.482 9.1092 52.482 8.15517C52.482 7.18966 52.6808 6.35057 53.0783 5.63793C53.4758 4.91379 54.0239 4.35057 54.7226 3.94828C55.4213 3.54598 56.2284 3.34483 57.1439 3.34483C58.2882 3.34483 59.2459 3.63793 60.0168 4.22414C60.7998 4.79885 61.3058 5.59195 61.5346 6.60345L58.8604 7.17241C58.7882 6.66667 58.6014 6.28736 58.3003 6.03448C58.0112 5.77011 57.6257 5.63793 57.1439 5.63793C56.5777 5.63793 56.1199 5.85057 55.7706 6.27586C55.4213 6.70115 55.2466 7.32759 55.2466 8.15517C55.2466 8.98276 55.4213 9.60919 55.7706 10.0345C56.1199 10.4598 56.5777 10.6724 57.1439 10.6724C57.6257 10.6724 58.0232 10.546 58.3364 10.2931C58.6496 10.0402 58.8484 9.66092 58.9327 9.15517L61.5889 9.68966C61.36 10.7011 60.848 11.5 60.053 12.0862C59.2579 12.6724 58.2882 12.9655 57.1439 12.9655Z" fill="#1A1A1A"/>
<path d="M68.5936 12.7241V7.48276C68.5936 6.87356 68.437 6.41379 68.1238 6.10345C67.8226 5.78161 67.4311 5.62069 66.9493 5.62069C66.4675 5.62069 66.0699 5.78161 65.7567 6.10345C65.4556 6.41379 65.305 6.87356 65.305 7.48276H64.8352C64.8352 6.5977 64.9677 5.85057 65.2327 5.24138C65.4978 4.62069 65.8712 4.14943 66.353 3.82759C66.8469 3.50575 67.4251 3.34483 68.0877 3.34483C68.7141 3.34483 69.2682 3.48851 69.75 3.77586C70.2318 4.06322 70.6053 4.47701 70.8703 5.01724C71.1473 5.55747 71.2859 6.2069 71.2859 6.96552V12.7241H68.5936ZM62.6127 12.7241V0.396552H65.305V12.7241H62.6127Z" fill="#1A1A1A"/>
<path d="M72.8387 12.7241V3.58621H75.531V12.7241H72.8387ZM74.1939 2.58621C73.7963 2.58621 73.4651 2.46552 73.2001 2.22414C72.9471 1.98276 72.8206 1.66667 72.8206 1.27586C72.8206 0.873563 72.9471 0.563218 73.2001 0.344827C73.4651 0.114942 73.7963 0 74.1939 0C74.5793 0 74.9046 0.114942 75.1696 0.344827C75.4346 0.563218 75.5671 0.873563 75.5671 1.27586C75.5671 1.66667 75.4346 1.98276 75.1696 2.22414C74.9046 2.46552 74.5793 2.58621 74.1939 2.58621Z" fill="#1A1A1A"/>
<path d="M83.0637 12.7241V7.48276C83.0637 6.87356 82.9071 6.41379 82.5939 6.10345C82.2927 5.78161 81.9012 5.62069 81.4194 5.62069C80.9375 5.62069 80.54 5.78161 80.2268 6.10345C79.9257 6.41379 79.7751 6.87356 79.7751 7.48276H79.3053C79.3053 6.5977 79.4378 5.85057 79.7028 5.24138C79.9678 4.62069 80.3413 4.14943 80.8231 3.82759C81.317 3.50575 81.8952 3.34483 82.5577 3.34483C83.1841 3.34483 83.7383 3.48851 84.2201 3.77586C84.7019 4.06322 85.0754 4.47701 85.3404 5.01724C85.6174 5.55747 85.756 6.2069 85.756 6.96552V12.7241H83.0637ZM77.0828 12.7241V3.58621H79.7751V12.7241H77.0828Z" fill="#1A1A1A"/>
<path d="M90.8503 16C90.0312 16 89.3144 15.9138 88.7001 15.7414C88.0978 15.569 87.5497 15.3391 87.0558 15.0517L88.0677 12.931C88.4772 13.1494 88.8928 13.3218 89.3144 13.4483C89.7361 13.5862 90.1757 13.6552 90.6335 13.6552C91.1635 13.6552 91.6273 13.569 92.0248 13.3966C92.4344 13.2241 92.7476 12.9655 92.9644 12.6207C93.1933 12.2759 93.3077 11.8506 93.3077 11.3448V9.67241L93.651 7.65517L93.3077 5.94828V3.58621H96V11.2241C96 12.2701 95.7832 13.1437 95.3495 13.8448C94.9159 14.5575 94.3136 15.092 93.5426 15.4483C92.7717 15.8161 91.8742 16 90.8503 16ZM90.5793 11.9655C89.8445 11.9655 89.2 11.7931 88.6459 11.4483C88.1038 11.1034 87.6822 10.6092 87.3811 9.96552C87.0799 9.31034 86.9293 8.54023 86.9293 7.65517C86.9293 6.75862 87.0799 5.98851 87.3811 5.34483C87.6822 4.70115 88.1038 4.2069 88.6459 3.86207C89.2 3.51724 89.8445 3.34483 90.5793 3.34483C91.543 3.34483 92.3139 3.66092 92.8921 4.2931C93.4824 4.91379 93.7775 5.8046 93.7775 6.96552V8.32759C93.7775 9.47701 93.4824 10.3736 92.8921 11.0172C92.3139 11.6494 91.543 11.9655 90.5793 11.9655ZM91.5911 9.63793C92.1693 9.63793 92.6271 9.47126 92.9644 9.13793C93.3137 8.7931 93.4884 8.29885 93.4884 7.65517C93.4884 7 93.3137 6.50575 92.9644 6.17241C92.6271 5.82759 92.1693 5.65517 91.5911 5.65517C91.0129 5.65517 90.5492 5.82759 90.1998 6.17241C89.8625 6.50575 89.6939 7 89.6939 7.65517C89.6939 8.29885 89.8625 8.7931 90.1998 9.13793C90.5492 9.47126 91.0129 9.63793 91.5911 9.63793Z" fill="#1A1A1A"/>
<path d="M4.66182 12.954C3.74632 12.954 2.93924 12.7529 2.24057 12.3506C1.54189 11.9483 0.993799 11.3851 0.596279 10.6609C0.198759 9.93678 0 9.0977 0 8.14368C0 7.17816 0.198759 6.33908 0.596279 5.62644C0.993799 4.9023 1.54189 4.33908 2.24057 3.93678C2.93924 3.53448 3.74632 3.33333 4.66182 3.33333C5.8062 3.33333 6.76386 3.62644 7.5348 4.21264C8.3178 4.78736 8.82373 5.58046 9.05261 6.59195L6.37838 7.16092C6.30611 6.65517 6.11939 6.27586 5.81824 6.02299C5.52914 5.75862 5.14366 5.62644 4.66182 5.62644C4.09566 5.62644 3.63791 5.83908 3.28857 6.26437C2.93924 6.68965 2.76457 7.31609 2.76457 8.14368C2.76457 8.97126 2.93924 9.5977 3.28857 10.023C3.63791 10.4483 4.09566 10.6609 4.66182 10.6609C5.14366 10.6609 5.54118 10.5345 5.85438 10.2816C6.16758 10.0287 6.36634 9.64943 6.45066 9.14368L9.10681 9.67816C8.87794 10.6897 8.36598 11.4885 7.57094 12.0747C6.7759 12.6609 5.8062 12.954 4.66182 12.954Z" fill="#1A1A1A"/>
<path d="M32.5756 12.7241V7.44828C32.5756 6.83908 32.437 6.38506 32.16 6.08621C31.895 5.77586 31.5517 5.62069 31.13 5.62069C30.7084 5.62069 30.3591 5.77586 30.082 6.08621C29.817 6.38506 29.6845 6.83908 29.6845 7.44828H28.9075C28.9075 6.57471 29.0401 5.83333 29.3051 5.22414C29.5821 4.61494 29.9676 4.14943 30.4615 3.82759C30.9554 3.50575 31.5396 3.34483 32.2142 3.34483C33.1056 3.34483 33.8344 3.66092 34.4005 4.2931C34.9788 4.92529 35.2679 5.8046 35.2679 6.93103V12.7241H32.5756ZM21.4089 12.7241V3.58621H24.1012V12.7241H21.4089ZM26.9922 12.7241V7.44828C26.9922 6.83908 26.8597 6.38506 26.5947 6.08621C26.3297 5.77586 25.9804 5.62069 25.5467 5.62069C25.1251 5.62069 24.7758 5.77586 24.4987 6.08621C24.2337 6.38506 24.1012 6.83908 24.1012 7.44828H23.6314C23.6314 6.57471 23.7518 5.83333 23.9928 5.22414C24.2457 4.61494 24.6011 4.14943 25.0588 3.82759C25.5286 3.50575 26.0767 3.34483 26.7031 3.34483C27.5825 3.34483 28.2992 3.66092 28.8533 4.2931C29.4075 4.92529 29.6845 5.8046 29.6845 6.93103V12.7241H26.9922Z" fill="#1A1A1A"/>
<path d="M42.3879 12.7241C42.3157 12.4253 42.2554 12.1207 42.2072 11.8103C42.1711 11.5 42.153 11.1954 42.153 10.8966V7.03448C42.153 6.43678 42.0085 6.01724 41.7194 5.77586C41.4303 5.53448 41.087 5.41379 40.6894 5.41379C40.304 5.41379 39.9667 5.51724 39.6776 5.72414C39.4005 5.93103 39.2078 6.27011 39.0994 6.74138L36.5155 6.2069C36.7684 5.25287 37.2744 4.54023 38.0333 4.06897C38.7922 3.58621 39.7318 3.34483 40.8521 3.34483C42.0808 3.34483 43.0505 3.65517 43.7612 4.27586C44.4839 4.88506 44.8453 5.73563 44.8453 6.82759V10.6897C44.8453 11.3678 44.9357 12.046 45.1164 12.7241H42.3879ZM39.2439 12.9655C38.3043 12.9655 37.5876 12.7299 37.0937 12.2586C36.6118 11.7874 36.3709 11.1667 36.3709 10.3966C36.3709 9.71839 36.6058 9.12069 37.0756 8.60345C37.5575 8.07471 38.2983 7.73563 39.2981 7.58621L42.93 7.01724V8.63793L40.2738 9.17241C39.8161 9.26437 39.5029 9.4023 39.3343 9.58621C39.1656 9.77011 39.0813 9.96552 39.0813 10.1724C39.0813 10.3908 39.1536 10.5747 39.2981 10.7241C39.4547 10.8621 39.6836 10.931 39.9847 10.931C40.3341 10.931 40.6714 10.8563 40.9966 10.7069C41.3339 10.5575 41.611 10.3333 41.8278 10.0345C42.0446 9.72414 42.153 9.35057 42.153 8.91379H42.7674C42.7674 9.74138 42.6108 10.4598 42.2976 11.069C41.9964 11.6782 41.5808 12.1494 41.0508 12.4828C40.5208 12.8046 39.9185 12.9655 39.2439 12.9655Z" fill="#1A1A1A"/>
<path d="M50.1722 12.9655C49.1242 12.9655 48.293 12.6782 47.6786 12.1034C47.0763 11.5287 46.7752 10.6667 46.7752 9.51724V1.68965L49.4675 1.18966V9.22414C49.4675 9.68391 49.594 10.0345 49.8469 10.2759C50.0999 10.5057 50.4552 10.6207 50.913 10.6207C51.1298 10.6207 51.3286 10.6034 51.5093 10.569C51.702 10.523 51.8948 10.477 52.0875 10.431V12.7241C51.8104 12.8046 51.5153 12.8621 51.2021 12.8966C50.901 12.9425 50.5576 12.9655 50.1722 12.9655ZM45.5826 5.7069V3.58621H51.9971V5.7069H45.5826Z" fill="#1A1A1A"/>
<path d="M57.1439 12.9655C56.2284 12.9655 55.4213 12.7644 54.7226 12.3621C54.0239 11.9598 53.4758 11.3966 53.0783 10.6724C52.6808 9.94828 52.482 9.1092 52.482 8.15517C52.482 7.18966 52.6808 6.35057 53.0783 5.63793C53.4758 4.91379 54.0239 4.35057 54.7226 3.94828C55.4213 3.54598 56.2284 3.34483 57.1439 3.34483C58.2882 3.34483 59.2459 3.63793 60.0168 4.22414C60.7998 4.79885 61.3058 5.59195 61.5346 6.60345L58.8604 7.17241C58.7882 6.66667 58.6014 6.28736 58.3003 6.03448C58.0112 5.77011 57.6257 5.63793 57.1439 5.63793C56.5777 5.63793 56.1199 5.85057 55.7706 6.27586C55.4213 6.70115 55.2466 7.32759 55.2466 8.15517C55.2466 8.98276 55.4213 9.60919 55.7706 10.0345C56.1199 10.4598 56.5777 10.6724 57.1439 10.6724C57.6257 10.6724 58.0232 10.546 58.3364 10.2931C58.6496 10.0402 58.8484 9.66092 58.9327 9.15517L61.5889 9.68966C61.36 10.7011 60.848 11.5 60.053 12.0862C59.2579 12.6724 58.2882 12.9655 57.1439 12.9655Z" fill="#1A1A1A"/>
<path d="M68.5936 12.7241V7.48276C68.5936 6.87356 68.437 6.41379 68.1238 6.10345C67.8226 5.78161 67.4311 5.62069 66.9493 5.62069C66.4675 5.62069 66.0699 5.78161 65.7567 6.10345C65.4556 6.41379 65.305 6.87356 65.305 7.48276H64.8352C64.8352 6.5977 64.9677 5.85057 65.2327 5.24138C65.4978 4.62069 65.8712 4.14943 66.353 3.82759C66.8469 3.50575 67.4251 3.34483 68.0877 3.34483C68.7141 3.34483 69.2682 3.48851 69.75 3.77586C70.2318 4.06322 70.6053 4.47701 70.8703 5.01724C71.1473 5.55747 71.2859 6.2069 71.2859 6.96552V12.7241H68.5936ZM62.6127 12.7241V0.396552H65.305V12.7241H62.6127Z" fill="#1A1A1A"/>
<path d="M72.8387 12.7241V3.58621H75.531V12.7241H72.8387ZM74.1939 2.58621C73.7963 2.58621 73.4651 2.46552 73.2001 2.22414C72.9471 1.98276 72.8206 1.66667 72.8206 1.27586C72.8206 0.873563 72.9471 0.563218 73.2001 0.344827C73.4651 0.114942 73.7963 0 74.1939 0C74.5793 0 74.9046 0.114942 75.1696 0.344827C75.4346 0.563218 75.5671 0.873563 75.5671 1.27586C75.5671 1.66667 75.4346 1.98276 75.1696 2.22414C74.9046 2.46552 74.5793 2.58621 74.1939 2.58621Z" fill="#1A1A1A"/>
<path d="M83.0637 12.7241V7.48276C83.0637 6.87356 82.9071 6.41379 82.5939 6.10345C82.2927 5.78161 81.9012 5.62069 81.4194 5.62069C80.9375 5.62069 80.54 5.78161 80.2268 6.10345C79.9257 6.41379 79.7751 6.87356 79.7751 7.48276H79.3053C79.3053 6.5977 79.4378 5.85057 79.7028 5.24138C79.9678 4.62069 80.3413 4.14943 80.8231 3.82759C81.317 3.50575 81.8952 3.34483 82.5577 3.34483C83.1841 3.34483 83.7383 3.48851 84.2201 3.77586C84.7019 4.06322 85.0754 4.47701 85.3404 5.01724C85.6174 5.55747 85.756 6.2069 85.756 6.96552V12.7241H83.0637ZM77.0828 12.7241V3.58621H79.7751V12.7241H77.0828Z" fill="#1A1A1A"/>
<path d="M90.8503 16C90.0312 16 89.3144 15.9138 88.7001 15.7414C88.0978 15.569 87.5497 15.3391 87.0558 15.0517L88.0677 12.931C88.4772 13.1494 88.8928 13.3218 89.3144 13.4483C89.7361 13.5862 90.1757 13.6552 90.6335 13.6552C91.1635 13.6552 91.6273 13.569 92.0248 13.3966C92.4344 13.2241 92.7476 12.9655 92.9644 12.6207C93.1933 12.2759 93.3077 11.8506 93.3077 11.3448V9.67241L93.651 7.65517L93.3077 5.94828V3.58621H96V11.2241C96 12.2701 95.7832 13.1437 95.3495 13.8448C94.9159 14.5575 94.3136 15.092 93.5426 15.4483C92.7717 15.8161 91.8742 16 90.8503 16ZM90.5793 11.9655C89.8445 11.9655 89.2 11.7931 88.6459 11.4483C88.1038 11.1034 87.6822 10.6092 87.3811 9.96552C87.0799 9.31034 86.9293 8.54023 86.9293 7.65517C86.9293 6.75862 87.0799 5.98851 87.3811 5.34483C87.6822 4.70115 88.1038 4.2069 88.6459 3.86207C89.2 3.51724 89.8445 3.34483 90.5793 3.34483C91.543 3.34483 92.3139 3.66092 92.8921 4.2931C93.4824 4.91379 93.7775 5.8046 93.7775 6.96552V8.32759C93.7775 9.47701 93.4824 10.3736 92.8921 11.0172C92.3139 11.6494 91.543 11.9655 90.5793 11.9655ZM91.5911 9.63793C92.1693 9.63793 92.6271 9.47126 92.9644 9.13793C93.3137 8.7931 93.4884 8.29885 93.4884 7.65517C93.4884 7 93.3137 6.50575 92.9644 6.17241C92.6271 5.82759 92.1693 5.65517 91.5911 5.65517C91.0129 5.65517 90.5492 5.82759 90.1998 6.17241C89.8625 6.50575 89.6939 7 89.6939 7.65517C89.6939 8.29885 89.8625 8.7931 90.1998 9.13793C90.5492 9.47126 91.0129 9.63793 91.5911 9.63793Z" fill="#1A1A1A"/>
<path d="M18.4649 4.36782V4.99521H19.1102V5.6226L19.7555 5.62261V8.13218H19.1102V8.75958H18.4649V9.38697H17.8195L17.8195 10.0144H17.1742V10.6418H16.5289V11.2692H15.8836V11.8966H14.5929V11.2692H13.9476V10.6418L13.3023 10.6418V10.0144H12.657V9.38697H12.0116V8.75958H11.3663V8.13218H10.721V5.62261L11.3663 5.6226V4.99521H12.0116V4.36782H13.9476V4.99521H14.5929V5.62261L15.8836 5.6226V4.99521H16.5289V4.36782H18.4649Z" fill="#EE1657"/>
</svg>
