<svg width="24" height="24" viewBox="0 0 24 24" fill="none" xmlns="http://www.w3.org/2000/svg">
<rect width="24" height="24" rx="12" fill="url(#paint0_linear_1029_6382)"/>
<path d="M14.5663 7.19971H9.23294C8.05473 7.19971 7.09961 8.15483 7.09961 9.33304V14.6664C7.09961 15.8446 8.05473 16.7997 9.23294 16.7997H14.5663C15.7445 16.7997 16.6996 15.8446 16.6996 14.6664V9.33304C16.6996 8.15483 15.7445 7.19971 14.5663 7.19971Z" stroke="white" stroke-width="1.6" stroke-linejoin="round"/>
<path d="M11.9009 14.1334C13.0791 14.1334 14.0342 13.1782 14.0342 12C14.0342 10.8218 13.0791 9.8667 11.9009 9.8667C10.7227 9.8667 9.76758 10.8218 9.76758 12C9.76758 13.1782 10.7227 14.1334 11.9009 14.1334Z" stroke="white" stroke-width="1.6" stroke-linejoin="round"/>
<path d="M14.8322 9.59938C15.1267 9.59938 15.3655 9.36061 15.3655 9.06605C15.3655 8.77149 15.1267 8.53271 14.8322 8.53271C14.5376 8.53271 14.2988 8.77149 14.2988 9.06605C14.2988 9.36061 14.5376 9.59938 14.8322 9.59938Z" fill="white"/>
<defs>
<linearGradient id="paint0_linear_1029_6382" x1="12" y1="0" x2="12" y2="24" gradientUnits="userSpaceOnUse">
<stop stop-color="#DD2A7B"/>
<stop offset="1" stop-color="#F58529"/>
</linearGradient>
</defs>
</svg>
