<svg width="23" height="21" viewBox="0 0 23 21" fill="none" xmlns="http://www.w3.org/2000/svg">
<path d="M11.3672 0C13.4224 0 15.3233 0.399994 17.0698 1.19998C18.8163 1.99997 20.1971 3.0878 21.212 4.46344C22.2269 5.83903 22.7344 7.33955 22.7344 8.96494C22.7344 10.5903 22.2269 12.0929 21.212 13.4728C20.1971 14.8527 18.8184 15.9426 17.0761 16.7426C15.3338 17.5425 13.4309 17.9426 11.3672 17.9426C10.716 17.9426 10.0435 17.896 9.35002 17.8029C6.33905 19.8938 4.73634 20.952 4.54181 20.9774C4.44877 21.0113 4.35994 21.007 4.27537 20.9647C4.24153 20.9393 4.21617 20.9055 4.19925 20.8631C4.18233 20.8208 4.17389 20.7827 4.17389 20.7488V20.6981C4.22466 20.3679 4.60945 18.9923 5.32837 16.5712C3.69603 15.7585 2.39988 14.6813 1.43993 13.3395C0.479976 11.9977 0 10.5395 0 8.96494C0 7.33955 0.507464 5.83903 1.52239 4.46344C2.53732 3.0878 3.91804 1.99997 5.66456 1.19998C7.41108 0.399994 9.31195 0 11.3672 0Z" fill="black"/>
</svg>
