<svg width="24" height="24" viewBox="0 0 24 24" fill="none" xmlns="http://www.w3.org/2000/svg">
<rect width="24" height="24" rx="12" fill="#FFF700"/>
<path d="M12 7C12.9944 7 13.9142 7.19047 14.7592 7.57142C15.6043 7.95237 16.2723 8.47038 16.7634 9.12545C17.2545 9.78049 17.5 10.495 17.5 11.269C17.5 12.043 17.2545 12.7585 16.7634 13.4156C16.2723 14.0727 15.6053 14.5917 14.7623 14.9727C13.9193 15.3536 12.9985 15.5441 12 15.5441C11.6849 15.5441 11.3596 15.5219 11.024 15.4776C9.56714 16.4733 8.79167 16.9772 8.69755 16.9892C8.65253 17.0054 8.60955 17.0034 8.56864 16.9832C8.55226 16.9711 8.53999 16.955 8.5318 16.9348C8.52361 16.9147 8.51953 16.8965 8.51953 16.8804V16.8562C8.54409 16.699 8.73028 16.044 9.07813 14.891C8.28832 14.504 7.66118 13.9911 7.19671 13.3521C6.73224 12.7132 6.5 12.0188 6.5 11.269C6.5 10.495 6.74554 9.78049 7.23661 9.12545C7.72768 8.47038 8.39574 7.95237 9.24079 7.57142C10.0858 7.19047 11.0056 7 12 7Z" fill="black"/>
</svg>
