<svg width="12" height="12" viewBox="0 0 12 12" fill="none" xmlns="http://www.w3.org/2000/svg">
<path d="M8.56627 1.19971H3.23294C2.05473 1.19971 1.09961 2.15483 1.09961 3.33304V8.66637C1.09961 9.84459 2.05473 10.7997 3.23294 10.7997H8.56627C9.74449 10.7997 10.6996 9.84459 10.6996 8.66637V3.33304C10.6996 2.15483 9.74449 1.19971 8.56627 1.19971Z" stroke="#B3B3B3" stroke-width="1.6" stroke-linejoin="round"/>
<path d="M5.90091 8.13337C7.07912 8.13337 8.03424 7.17825 8.03424 6.00003C8.03424 4.82182 7.07912 3.8667 5.90091 3.8667C4.7227 3.8667 3.76758 4.82182 3.76758 6.00003C3.76758 7.17825 4.7227 8.13337 5.90091 8.13337Z" stroke="#B3B3B3" stroke-width="1.6" stroke-linejoin="round"/>
<path d="M8.83216 3.59938C9.12672 3.59938 9.36549 3.36061 9.36549 3.06605C9.36549 2.77149 9.12672 2.53271 8.83216 2.53271C8.5376 2.53271 8.29883 2.77149 8.29883 3.06605C8.29883 3.36061 8.5376 3.59938 8.83216 3.59938Z" fill="#B3B3B3"/>
</svg>
