<svg width="11" height="10" viewBox="0 0 11 10" fill="none" xmlns="http://www.w3.org/2000/svg">
<path d="M5.5 0C6.49442 0 7.41416 0.190473 8.25921 0.57142C9.10426 0.952366 9.77233 1.47038 10.2634 2.12545C10.7545 2.78049 11 3.49502 11 4.26902C11 5.04299 10.7545 5.75853 10.2634 6.41563C9.77233 7.0727 9.10528 7.59172 8.26227 7.97266C7.41926 8.35359 6.49851 8.54409 5.5 8.54409C5.1849 8.54409 4.85955 8.5219 4.52399 8.47757C3.06714 9.47326 2.29167 9.97717 2.19755 9.98924C2.15253 10.0054 2.10955 10.0034 2.06864 9.98322C2.05226 9.97112 2.03999 9.95498 2.0318 9.93482C2.02361 9.91467 2.01953 9.89654 2.01953 9.8804V9.85623C2.04409 9.699 2.23028 9.04395 2.57813 7.89103C1.78832 7.50404 1.16118 6.99107 0.696708 6.35212C0.232236 5.71319 0 5.01882 0 4.26902C0 3.49502 0.245536 2.78049 0.736608 2.12545C1.22768 1.47038 1.89574 0.952366 2.74079 0.57142C3.58584 0.190473 4.50558 0 5.5 0Z" fill="#B3B3B3"/>
</svg>
