<svg width="302" height="82" viewBox="0 0 302 82" fill="none" xmlns="http://www.w3.org/2000/svg">
<g filter="url(#filter0_dd_915_6703)">
<rect x="16" y="16" width="270" height="38" rx="19" fill="white"/>
<path d="M53.5391 39.3438V40.5781H40.7266V39.3438H46.3672V36.1094H42.1953V29.4531H52.0078V36.1094H47.8359V39.3438H53.5391ZM43.6328 34.9375H50.5547V30.6406H43.6328V34.9375ZM67.3359 35.3438V36.5312H54.5547V35.3438H67.3359ZM56.1484 33.9375V28.9062H65.7578V30.0938H57.6328V32.7188H65.8984V33.9375H56.1484ZM56.1641 42.0312V37.9062H57.6328V40.8125H65.9922V42.0312H56.1641ZM83.9609 28.3281V36.6562H82.4766V33.1094H79.8672V31.8906H82.4766V28.3281H83.9609ZM72.2891 35.3906C74.4609 34.6328 75.7969 32.7422 75.7891 30.8125V30.5H72.7578V29.2969H80.3047V30.5H77.3047V30.7969C77.2969 32.5703 78.5625 34.2969 80.6797 35.0156L79.9141 36.1875C78.3438 35.6484 77.1875 34.5234 76.5781 33.1406C75.9688 34.7031 74.7422 35.9609 73.0703 36.5781L72.2891 35.3906ZM74.5391 39.6875C74.5312 38.0234 76.3281 37.0547 79.2734 37.0469C82.2031 37.0547 84 38.0234 84.0078 39.6875C84 41.3516 82.2031 42.3203 79.2734 42.3281C76.3281 42.3203 74.5312 41.3516 74.5391 39.6875ZM76.0078 39.6875C76 40.6328 77.2188 41.1719 79.2734 41.1562C81.3125 41.1719 82.5312 40.6328 82.5391 39.6875C82.5312 38.7344 81.3125 38.1953 79.2734 38.2031C77.2188 38.1953 76 38.7344 76.0078 39.6875ZM98.9297 39.3594V40.5938H86.1172V39.3594H91.7578V36.4844H87.5859V29.2812H89.0703V31.6875H95.9453V29.2812H97.4141V36.4844H93.2266V39.3594H98.9297ZM89.0703 35.2812H95.9453V32.8906H89.0703V35.2812ZM110.852 28.3281V33.9062H113.023V35.1406H110.852V42.3125H109.367V28.3281H110.852ZM99.9609 38.5781C103.469 36.8281 105.375 34.2969 105.68 31.0312H100.664V29.7969H107.195C107.18 33.8438 105.398 37.4609 100.789 39.7344L99.9609 38.5781ZM124.773 29.2656V35.2969H118.227V29.2656H124.773ZM119.039 41.125C121.438 40.7812 123.227 39.6016 123.453 38.2344H119.602V37.0469H128.898V38.2344H125.062C125.273 39.5703 127.094 40.7812 129.477 41.1406L128.93 42.2812C126.805 41.9531 125.055 40.9766 124.242 39.6484C123.445 40.9844 121.711 41.9453 119.586 42.2656L119.039 41.125ZM119.68 34.1094H123.32V30.4531H119.68V34.1094ZM127.195 36.2656V28.3281H128.68V31.5781H130.711V32.8125H128.68V36.2656H127.195ZM144.586 33.8281V35.0469H142.414V42.3125H140.93V28.3281H142.414V33.8281H144.586ZM132.039 38.7969V29.6875H133.508V37.5625C135.461 37.5547 137.5 37.3906 139.727 36.9375L139.898 38.1875C137.5 38.6641 135.297 38.8047 133.195 38.7969H132.039ZM158.148 39.3438V40.5781H145.336V39.3438H148.398V35.6875C147.25 35.0547 146.547 34.0547 146.555 32.7969C146.547 30.5938 148.711 29.1484 151.711 29.1406C154.719 29.1484 156.883 30.5938 156.883 32.7969C156.883 34.0312 156.211 35.0234 155.086 35.6562V39.3438H158.148ZM147.992 32.7969C147.992 34.2969 149.516 35.2734 151.711 35.2812C153.891 35.2734 155.438 34.2969 155.445 32.7969C155.438 31.2891 153.891 30.3281 151.711 30.3281C149.516 30.3281 147.992 31.2891 147.992 32.7969ZM149.867 39.3438H153.586V36.2344C153.016 36.3672 152.383 36.4375 151.711 36.4375C151.055 36.4375 150.43 36.3672 149.867 36.2344V39.3438ZM161.461 37.6406C161.484 35.5938 162.086 34.9688 163.117 34.3281C163.773 33.9297 164.273 33.3516 164.273 32.5312C164.273 31.5547 163.523 30.9375 162.586 30.9375C161.742 30.9375 160.922 31.4531 160.852 32.6094H159.164C159.227 30.6172 160.727 29.5312 162.586 29.5312C164.617 29.5312 165.977 30.75 165.977 32.5312C165.977 33.7891 165.375 34.625 164.383 35.2344C163.445 35.8047 163.078 36.3672 163.055 37.6406V37.7344H161.461V37.6406ZM161.211 40C161.203 39.3906 161.711 38.8906 162.32 38.8906C162.922 38.8906 163.422 39.3906 163.43 40C163.422 40.6094 162.922 41.1016 162.32 41.1094C161.711 41.1016 161.203 40.6094 161.211 40ZM182.648 28.3281V42.3594H181.164V28.3281H182.648ZM171.539 34.2812C171.539 31.2891 173.047 29.3828 175.164 29.375C177.242 29.3828 178.773 31.2891 178.773 34.2812C178.773 37.3047 177.242 39.2109 175.164 39.2031C173.047 39.2109 171.539 37.3047 171.539 34.2812ZM172.977 34.2812C172.969 36.5078 173.859 37.875 175.164 37.875C176.445 37.875 177.336 36.5078 177.336 34.2812C177.336 32.0859 176.445 30.7109 175.164 30.7031C173.859 30.7109 172.969 32.0859 172.977 34.2812ZM196.898 28.3281V42.3281H195.477V28.3281H196.898ZM184.68 38.4688C186.664 37.2734 187.672 34.7266 187.68 32.2344V31.1094H185.102V29.9062H191.508V31.1094H189.102V32.2344C189.102 34.625 190.07 37.0234 192.039 38.1562L191.148 39.25C189.812 38.4531 188.898 37.0234 188.406 35.3359C187.906 37.1641 186.953 38.7266 185.586 39.5781L184.68 38.4688ZM190.477 34.5V33.2812H192.648V28.625H194.055V41.625H192.648V34.5H190.477ZM207.758 31.8906C207.742 34.4453 209.289 37.0234 211.461 37.9844L210.57 39.1562C208.961 38.3906 207.688 36.8203 207.031 34.9062C206.383 36.9609 205.094 38.6484 203.414 39.4688L202.508 38.2188C204.711 37.2422 206.258 34.5625 206.258 31.8906V29.5H207.758V31.8906ZM212.727 42.3594V28.3281H214.211V42.3594H212.727ZM221.336 30.8438C221.328 32.6328 222.57 34.3281 224.711 35.0469L223.961 36.2031C222.375 35.6562 221.211 34.5625 220.602 33.1875C219.992 34.6953 218.773 35.8906 217.133 36.4688L216.336 35.3125C218.523 34.5703 219.844 32.7578 219.852 30.8281V30.4531H216.773V29.25H224.352V30.4531H221.336V30.8438ZM218.195 38.6562V37.4531H227.445V42.3281H225.961V38.6562H218.195ZM225.961 36.7656V28.3281H227.445V31.9219H229.477V33.1719H227.445V36.7656H225.961ZM237.195 30.6406V31.8438H230.242V30.6406H232.992V28.7344H234.461V30.6406H237.195ZM230.695 35.9062C230.688 34.0234 231.969 32.6875 233.727 32.6875C235.5 32.6875 236.766 34.0234 236.773 35.9062C236.766 37.8203 235.5 39.1641 233.727 39.1562C231.969 39.1641 230.688 37.8203 230.695 35.9062ZM232.008 35.9062C232 37.0938 232.719 37.8906 233.727 37.8906C234.734 37.8906 235.461 37.0938 235.461 35.9062C235.461 34.7422 234.734 33.9297 233.727 33.9219C232.719 33.9297 232 34.7422 232.008 35.9062ZM237.836 41.6719V28.6406H239.242V34.1562H240.852V28.3281H242.258V42.3281H240.852V35.375H239.242V41.6719H237.836ZM256.914 39.3438V40.5781H244.102V39.3438H247.164V35.6875C246.016 35.0547 245.312 34.0547 245.32 32.7969C245.312 30.5938 247.477 29.1484 250.477 29.1406C253.484 29.1484 255.648 30.5938 255.648 32.7969C255.648 34.0312 254.977 35.0234 253.852 35.6562V39.3438H256.914ZM246.758 32.7969C246.758 34.2969 248.281 35.2734 250.477 35.2812C252.656 35.2734 254.203 34.2969 254.211 32.7969C254.203 31.2891 252.656 30.3281 250.477 30.3281C248.281 30.3281 246.758 31.2891 246.758 32.7969ZM248.633 39.3438H252.352V36.2344C251.781 36.3672 251.148 36.4375 250.477 36.4375C249.82 36.4375 249.195 36.3672 248.633 36.2344V39.3438ZM260.508 29.6875L260.367 37.7344H258.82L258.68 29.6875H260.508ZM258.492 40C258.484 39.3906 258.992 38.8906 259.602 38.8906C260.203 38.8906 260.703 39.3906 260.711 40C260.703 40.6094 260.203 41.1016 259.602 41.1094C258.992 41.1016 258.484 40.6094 258.492 40Z" fill="black"/>
<path d="M157 54H145L150.553 65.1056C150.737 65.4741 151.263 65.4741 151.447 65.1056L157 54Z" fill="white"/>
</g>
<defs>
<filter id="filter0_dd_915_6703" x="0" y="0" width="302" height="82" filterUnits="userSpaceOnUse" color-interpolation-filters="sRGB">
<feFlood flood-opacity="0" result="BackgroundImageFix"/>
<feColorMatrix in="SourceAlpha" type="matrix" values="0 0 0 0 0 0 0 0 0 0 0 0 0 0 0 0 0 0 127 0" result="hardAlpha"/>
<feOffset dy="4"/>
<feGaussianBlur stdDeviation="2"/>
<feComposite in2="hardAlpha" operator="out"/>
<feColorMatrix type="matrix" values="0 0 0 0 0 0 0 0 0 0 0 0 0 0 0 0 0 0 0.05 0"/>
<feBlend mode="normal" in2="BackgroundImageFix" result="effect1_dropShadow_915_6703"/>
<feColorMatrix in="SourceAlpha" type="matrix" values="0 0 0 0 0 0 0 0 0 0 0 0 0 0 0 0 0 0 127 0" result="hardAlpha"/>
<feOffset/>
<feGaussianBlur stdDeviation="8"/>
<feComposite in2="hardAlpha" operator="out"/>
<feColorMatrix type="matrix" values="0 0 0 0 0 0 0 0 0 0 0 0 0 0 0 0 0 0 0.1 0"/>
<feBlend mode="normal" in2="effect1_dropShadow_915_6703" result="effect2_dropShadow_915_6703"/>
<feBlend mode="normal" in="SourceGraphic" in2="effect2_dropShadow_915_6703" result="shape"/>
</filter>
</defs>
</svg>
